<?xml version="1.0" encoding="UTF-8" standalone="no"?>
<!-- Created with Inkscape (http://www.inkscape.org/) -->

<svg
   width="210mm"
   height="148mm"
   viewBox="0 0 210 148.00001"
   version="1.1"
   id="svg1"
   xml:space="preserve"
   sodipodi:docname="bitmap2.svg"
   inkscape:export-filename="..\mercadosvg2.svg"
   inkscape:export-xdpi="96"
   inkscape:export-ydpi="96"
   xmlns:inkscape="http://www.inkscape.org/namespaces/inkscape"
   xmlns:sodipodi="http://sodipodi.sourceforge.net/DTD/sodipodi-0.dtd"
   xmlns="http://www.w3.org/2000/svg"
   xmlns:svg="http://www.w3.org/2000/svg"><sodipodi:namedview
     id="namedview1"
     pagecolor="#ffffff"
     bordercolor="#999999"
     borderopacity="1"
     inkscape:showpageshadow="2"
     inkscape:pageopacity="0"
     inkscape:pagecheckerboard="0"
     inkscape:deskcolor="#d1d1d1"
     inkscape:document-units="mm"
     showguides="false"><sodipodi:guide
       position="-15.162455,89.308674"
       orientation="1,0"
       id="guide3"
       inkscape:locked="false" /><sodipodi:guide
       position="-12.256317,90.066797"
       orientation="1,0"
       id="guide4"
       inkscape:locked="false" /><sodipodi:guide
       position="-9.3501803,90.066797"
       orientation="1,0"
       id="guide5"
       inkscape:locked="false" /><sodipodi:guide
       position="-15.65782,92.114323"
       orientation="0,-1"
       id="guide6"
       inkscape:locked="false" /><sodipodi:guide
       position="-11.011848,93.164134"
       orientation="1,0"
       id="guide7"
       inkscape:locked="false" /><sodipodi:guide
       position="-13.513525,92.650397"
       orientation="1,0"
       id="guide8"
       inkscape:locked="false" /><sodipodi:guide
       position="-30.335632,110.51952"
       orientation="1,0"
       id="guide9"
       inkscape:locked="false" /><sodipodi:guide
       position="-27.451442,123.63099"
       orientation="1,0"
       id="guide10"
       inkscape:locked="false" /><sodipodi:guide
       position="-33.191898,123.31829"
       orientation="1,0"
       id="guide11"
       inkscape:locked="false" /><sodipodi:guide
       position="-36.229649,112.95419"
       orientation="0,-1"
       id="guide12"
       inkscape:locked="false" /><sodipodi:guide
       position="-34.777783,117.66717"
       orientation="1,0"
       id="guide13"
       inkscape:locked="false" /><sodipodi:guide
       position="-25.820884,116.01428"
       orientation="1,0"
       id="guide14"
       inkscape:locked="false" /><sodipodi:guide
       position="-30.182761,114.1372"
       orientation="0,-1"
       id="guide15"
       inkscape:locked="false" /><sodipodi:guide
       position="-29.238354,111.14494"
       orientation="0,-1"
       id="guide16"
       inkscape:locked="false" /><sodipodi:guide
       position="-33.325916,108.86663"
       orientation="0,-1"
       id="guide17"
       inkscape:locked="false" /></sodipodi:namedview><defs
     id="defs1" /><g
     id="layer1"
     style="display:inline"
     transform="translate(-36.870689,-28.875361)"><path
       id="path8"
       style="display:inline;fill:#31964a;fill-opacity:1;stroke:none;stroke-width:0.704162;stroke-linecap:butt;stroke-linejoin:miter;stroke-dasharray:none;stroke-opacity:1;paint-order:markers stroke fill"
       d="m 122.13228,124.13934 c -0.90466,-0.79967 -10.52864,-7.6733 -15.42014,-11.96187 -2.00203,-1.75525 -2.56908,-2.66186 -5.67926,-5.6167 -2.551583,-2.42414 -4.320193,-4.89989 -4.440023,-5.02764 -2.27825,-3.206117 -4.872251,-0.87822 -2.47561,1.82243 0,0 6.240003,7.02133 6.868513,7.84921 0.42452,0.55919 0.15199,11.83062 -0.0951,17.7383 -0.23678,5.66119 1.96084,3.57964 6.26363,-1.07898 2.5033,-2.71032 4.41811,-6.29276 5.97984,-6.59824 0.32776,-0.0641 3.00784,2.38936 6.35824,4.55422 1.71657,1.10916 3.24812,-0.80205 2.63996,-1.68073 z" /><path
       id="path7"
       style="fill:#cba93e;fill-opacity:1;stroke:none;stroke-width:0.654021;stroke-linecap:butt;stroke-linejoin:miter;stroke-dasharray:none;stroke-opacity:1;paint-order:markers stroke fill"
       d="m 186.03795,73.426095 c 2.87763,-1.297818 4.65432,-2.011267 8.35326,-4.461924 0.52567,-0.348272 2.07228,1.881741 1.08226,2.438388 -2.53325,1.424323 -2.79981,1.666698 -2.96259,2.026134 -0.19164,0.423171 -0.58913,1.763781 -0.78584,2.670678 -0.66049,3.044975 -0.95164,6.159992 -1.31396,9.254707 -0.30968,2.645019 -0.45289,5.307277 -0.73447,7.95544 -0.28477,2.678313 0.0472,7.811262 -0.96568,8.022312 -0.59976,0.12497 -1.48435,-1.46264 -2.39075,-3.2469 -0.63448,-1.248973 -1.18854,-2.328134 -1.84364,-3.458345 -1.45799,-2.515456 -3.16628,-4.87935 -4.63919,-7.386091 -0.85265,-1.451164 -2.13075,-4.042838 -2.92089,-5.289702 l 1.79723,-5.794726 c 0,0 4.94914,-1.658787 7.32426,-2.729971 z"
       sodipodi:nodetypes="asssssssscscca" /><path
       id="path4"
       style="fill:#d62136;fill-opacity:1;stroke:none;stroke-width:0.501751;stroke-linecap:butt;stroke-linejoin:miter;stroke-dasharray:none;stroke-opacity:1;paint-order:markers stroke fill"
       d="m 113.36984,96.943868 c -2.11172,0.510055 -8.29072,1.065736 -11.97517,0.691626 10e-6,-5.4e-4 -2.589513,-0.31708 -2.898353,0.842 -0.30884,1.15907 1.31112,1.844706 1.43738,1.883706 0.268333,0.0829 6.775633,0.21736 6.913753,0.2059 0.34738,-0.0295 1.40122,1.2752 1.98694,2.01445 1.13715,1.43522 1.9952,3.07235 2.92522,4.6497 1.0285,1.74438 1.87017,3.65394 2.93346,5.31985 1.06329,1.66591 2.8397,4.83532 3.41739,4.66513 0.5777,-0.17019 0.61528,-3.70683 0.74947,-5.77586 0.15493,-2.38901 -0.0391,-4.55772 0.14292,-6.84461 0.1007,-1.26503 0.11164,-2.5421 0.15106,-3.81373 0.0313,-1.008419 -0.0827,-2.853181 0.0678,-3.025953 0.10408,-0.119462 4.37887,-2.084756 4.46409,-2.311553 0.25739,-0.68503 -0.13723,-2.005451 -0.72196,-1.789687 0,0 -4.57851,2.227261 -9.59399,3.289031 -5.01548,1.06177 -1e-5,0 -1e-5,0 z"
       sodipodi:nodetypes="zcsscssssssassczz"
       inkscape:label="path4" /><path
       id="path1"
       style="fill:#531374;fill-opacity:1;stroke:none;stroke-width:2.8;stroke-linecap:butt;stroke-linejoin:miter;stroke-dasharray:none;stroke-opacity:1;paint-order:markers stroke fill"
       d="m 224.79195,31.451157 c -0.40865,0.02979 -0.70486,0.214458 -0.70486,0.214458 -24.98485,15.124628 -48.32142,21.701 -77.33223,22.041548 -24.2448,0.28459 -48.259603,-5.747444 -67.834623,-12.374955 0,0 -1.080352,0.119821 -1.473812,0.706417 -0.39345,0.586594 0.359151,1.741496 0.359151,1.741496 0,0 23.845754,7.666494 26.985954,10.35389 1.25279,1.072158 9.00441,13.307063 12.45867,20.527429 4.75434,9.93794 7.68199,20.65369 11.23755,31.08079 3.54938,10.40891 7.06447,20.83929 10.07484,31.41669 3.17532,11.15702 7.15232,33.94459 8.41499,33.76744 1.26267,-0.17713 6.80482,-22.11811 10.1136,-33.2052 3.8205,-12.80183 7.36322,-22.11956 12.10365,-36.07274 2.98942,-8.799186 4.99147,-14.199613 6.83731,-20.269561 6.04349,-19.87373 9.56261,-26.420059 11.70109,-27.360087 16.87311,-7.416995 38.33255,-19.592602 38.33255,-19.592602 0,0 1.00528,-1.024662 0.10542,-2.261361 -0.44993,-0.618349 -0.9706,-0.743441 -1.37925,-0.713652 z m -84.26979,34.306434 6.22029,0.0894 v 20.806998 l -5.41724,-0.04702 0.0305,-8.618595 c 0,0 0.11611,-2.351887 -1.41748,-2.369365 -1.53359,-0.01747 -2.24741,3.300057 -2.24741,3.300057 0,0 -0.80046,-3.30776 -2.08101,-3.270601 -1.28054,0.03716 -1.62729,2.266011 -1.62729,2.266011 l 0.0724,8.739518 H 128.6309 V 65.846991 l 6.15931,-0.06718 c 0,0 1.19221,4.512223 2.87114,4.560962 1.67895,0.04874 2.86081,-4.583182 2.86081,-4.583182 z m 15.24145,20.771858 c 0.59797,0.0033 1.19816,0.142641 1.69395,0.408761 0.64876,0.348228 6.29729,20.57394 6.29729,20.57394 l -5.05964,-0.0631 c 0,0 -0.0448,-4.45363 -2.92437,-4.48551 -2.87952,-0.0319 -2.95899,4.48551 -2.95899,4.48551 l -5.02812,0.0631 c 0,0 5.7433,-20.2573 6.29729,-20.57394 0.48854,-0.279224 1.08462,-0.412037 1.68259,-0.408761 z m -0.0124,7.183541 -1.26969,6.172233 c 0,0 0.57323,0.08369 1.24591,0.0925 0.67269,0.0088 1.26711,-0.08837 1.26711,-0.08837 z" /><path
       id="path5"
       style="fill:#d62136;fill-opacity:1;stroke:none;stroke-width:0.334038;stroke-linecap:butt;stroke-linejoin:miter;stroke-dasharray:none;stroke-opacity:1;paint-order:markers stroke fill"
       d="m 174.00158,145.51679 c 0.76829,0.29592 1.36424,0.58888 1.3874,0.71 0.06,0.31373 -0.51619,1.1233 -0.61736,1.12626 -0.10117,0.003 -2.5171,-0.86258 -3.16851,-0.99036 -0.46617,-0.0915 -1.16445,0.75266 -1.70207,1.18826 -0.9813,0.7951 -1.85972,1.70984 -2.766,2.5895 -0.99655,0.96728 -2.0734,1.9555 -2.93682,2.95528 -0.8634,0.99978 -2.35039,2.9324 -2.69559,2.74519 -0.3452,-0.18718 -0.39843,-2.61101 -0.53325,-3.9242 -0.0533,-0.51923 -0.0886,-1.04052 -0.10883,-1.56208 -0.0408,-1.05233 -0.0405,-2.10624 -0.0253,-3.15925 0.0151,-1.042 0.14764,-2.08258 0.11536,-3.12419 -0.0266,-0.85689 -0.0753,-2.39952 -0.25388,-2.55935 -0.17034,-0.15241 -1.67586,-1.24378 -1.64285,-1.44689 0.055,-0.3385 0.84674,-1.2564 1.07523,-1.21072 0.25137,0.0503 4.20461,2.765 6.46374,3.85627 2.37796,1.14867 5.36261,2.05124 7.40891,2.80628 z" /><path
       id="path6"
       style="fill:#31964a;fill-opacity:1;stroke:none;stroke-width:0.706986;stroke-linecap:butt;stroke-linejoin:miter;stroke-dasharray:none;stroke-opacity:1;paint-order:markers stroke fill"
       d="m 197.59759,68.684815 c 2.28643,-1.294589 2.52886,-2.167059 3.56559,-1.932142 0.39786,0.09014 1.87855,1.324574 2.7543,2.069813 2.13335,1.815415 4.28869,3.652148 6.06731,5.830592 3.00523,3.680807 7.01604,12.346287 7.6484,12.072325 0.88116,-0.381756 1.92474,-8.829366 1.9983,-10.534706 0.0965,-2.478057 -0.004,-4.960058 0.006,-7.44005 0.0131,-3.057892 0.0399,-6.061292 0.0713,-9.173467 0.0397,-3.948381 -0.5148,-10.801385 0.10352,-11.88128 0.51611,-0.901382 2.32678,-3.812854 5.84969,-7.95826 0.15561,-0.183107 -0.83568,-1.939764 -1.83774,-1.451559 -0.21216,0.103369 -0.23732,0.332051 -2.69993,3.024157 -4.80979,5.258015 -7.24063,8.280825 -11.10983,12.173547 -4.45742,4.484509 -8.62694,9.116785 -13.92139,12.858354 -0.75167,0.531204 1.2239,2.501446 1.50432,2.342676 z" /></g></svg>
